<?xml version="1.0" encoding="UTF-8" standalone="no"?>
<!-- Created with Inkscape (http://www.inkscape.org/) -->

<svg
   version="1.1"
   id="svg1"
   width="238.84"
   height="164.53333"
   viewBox="0 0 238.84 164.53333"
   sodipodi:docname="MichiganTech_Vertical_TwoColor.eps"
   xmlns:inkscape="http://www.inkscape.org/namespaces/inkscape"
   xmlns:sodipodi="http://sodipodi.sourceforge.net/DTD/sodipodi-0.dtd"
   xmlns="http://www.w3.org/2000/svg"
   xmlns:svg="http://www.w3.org/2000/svg">
  <defs
     id="defs1" />
  <sodipodi:namedview
     id="namedview1"
     pagecolor="#ffffff"
     bordercolor="#000000"
     borderopacity="0.25"
     inkscape:showpageshadow="2"
     inkscape:pageopacity="0.0"
     inkscape:pagecheckerboard="0"
     inkscape:deskcolor="#d1d1d1">
    <inkscape:page
       x="0"
       y="0"
       inkscape:label="1"
       id="page1"
       width="238.84"
       height="164.53333"
       margin="0"
       bleed="0" />
  </sodipodi:namedview>
  <g
     id="g1"
     inkscape:groupmode="layer"
     inkscape:label="1">
    <g
       id="group-R5">
      <path
         id="path2"
         d="m 1389.64,171.82 h -27.04 l -2.34,33.02 h -27.83 l -8.58,-0.52 V 74.832 l 21.59,-1.3007 v -24.961 h -78.01 v 24.961 l 21.32,1.3007 V 204.32 l -8.32,0.52 h -27.3 l -2.34,-33.02 h -27.04 v 58.758 h 165.89 V 171.82"
         style="fill:#231f20;fill-opacity:1;fill-rule:nonzero;stroke:none"
         transform="matrix(0.13333333,0,0,-0.13333333,0,164.53333)" />
      <path
         id="path3"
         d="m 1422.28,122.512 h 52.88 c -0.72,30.148 -5.74,34.218 -26.32,34.218 -21.3,0 -25.85,-4.07 -26.56,-34.218 z m 53.12,-35.4104 28,1.1992 c 0,-32.7891 -7.66,-41.8789 -54.08,-41.8789 -47.62,0 -56.72,10.7695 -56.72,66.2771 0,55.281 9.1,66.051 56.24,66.051 47.85,0 54.79,-9.809 54.79,-67.961 0,-5.738 -1.43,-7.18 -6.94,-7.18 h -74.41 c 0.71,-30.8707 5.02,-34.9371 27.04,-34.9371 22.49,0 26.08,3.8281 26.08,18.4297"
         style="fill:#231f20;fill-opacity:1;fill-rule:nonzero;stroke:none"
         transform="matrix(0.13333333,0,0,-0.13333333,0,164.53333)" />
      <path
         id="path4"
         d="m 1630.07,135.199 -28.47,-1.437 c 0,16.508 -4.07,21.539 -25.84,21.539 -23.69,0 -27.04,-5.27 -27.04,-42.602 0,-37.5701 3.35,-42.5896 27.04,-42.5896 22.01,0 25.84,4.0703 25.84,20.582 l 28.47,1.1875 c 0,-36.6094 -7.41,-45.457 -54.31,-45.457 -47.62,0 -56.72,10.7695 -56.72,66.2771 0,55.281 9.1,66.051 56.72,66.051 46.18,0 54.31,-8.859 54.31,-43.551"
         style="fill:#231f20;fill-opacity:1;fill-rule:nonzero;stroke:none"
         transform="matrix(0.13333333,0,0,-0.13333333,0,164.53333)" />
      <path
         id="path5"
         d="m 1791.29,48.5703 h -67.01 v 21.5391 l 18.19,1.1992 v 60.5434 c 0,16.269 -4.79,21.046 -21.06,21.046 -10.29,0 -17.71,-2.386 -31.82,-9.328 V 71.3086 l 18.18,-1.1992 V 48.5703 h -67.24 v 21.5391 l 18.19,1.1992 V 205.309 l -18.19,0.961 v 21.769 h 49.06 v -67.957 c 11.96,10.77 26.8,18.668 47.38,18.668 26.8,0 36.37,-8.621 36.37,-39.012 V 71.3086 l 17.95,-1.1992 V 48.5703"
         style="fill:#231f20;fill-opacity:1;fill-rule:nonzero;stroke:none"
         transform="matrix(0.13333333,0,0,-0.13333333,0,164.53333)" />
      <path
         id="path6"
         d="m 241.559,48.5703 h -75.047 v 25.0195 l 19.281,1.3008 V 199.449 L 138.367,48.5703 H 103.191 L 54.9805,197.891 V 74.8906 L 74.7852,73.5898 V 48.5703 H 0 v 25.0195 l 21.3672,1.3008 V 204.66 L 0.78125,205.961 V 230.98 H 80.5195 L 117,111.891 c 2.086,-6.77 3.648,-13.809 5.211,-20.5824 1.824,6.7734 3.391,13.8124 5.473,20.5824 l 35.961,119.089 h 77.652 V 205.961 L 220.191,204.66 V 74.8906 l 21.368,-1.3008 V 48.5703"
         style="fill:#231f20;fill-opacity:1;fill-rule:nonzero;stroke:none"
         transform="matrix(0.13333333,0,0,-0.13333333,0,164.53333)" />
      <path
         id="path7"
         d="m 326.551,48.5703 h -67.004 v 21.5391 l 18.426,1.1992 v 82.5504 l -18.426,0.961 v 21.77 h 49.055 V 71.3086 l 17.949,-1.1992 V 48.5703"
         style="fill:#231f20;fill-opacity:1;fill-rule:nonzero;stroke:none"
         transform="matrix(0.13333333,0,0,-0.13333333,0,164.53333)" />
      <path
         id="path8"
         d="m 450.57,135.199 -28.476,-1.437 c 0,16.508 -4.067,21.539 -25.84,21.539 -23.691,0 -27.043,-5.27 -27.043,-42.602 0,-37.5701 3.352,-42.5896 27.043,-42.5896 22.012,0 25.84,4.0703 25.84,20.582 l 28.476,1.1875 c 0,-36.6094 -7.418,-45.457 -54.316,-45.457 -47.621,0 -56.715,10.7695 -56.715,66.2771 0,55.281 9.094,66.051 56.715,66.051 46.18,0 54.316,-8.859 54.316,-43.551"
         style="fill:#231f20;fill-opacity:1;fill-rule:nonzero;stroke:none"
         transform="matrix(0.13333333,0,0,-0.13333333,0,164.53333)" />
      <path
         id="path9"
         d="m 618.645,48.5703 h -68.098 v 21.8906 l 18.484,1.2188 v 61.5313 c 0,16.539 -4.863,21.398 -21.402,21.398 -10.457,0 -17.996,-2.429 -32.348,-9.48 V 71.6797 l 18.485,-1.2188 V 48.5703 h -68.34 v 21.8906 l 18.48,1.2188 V 207.871 l -18.48,0.981 v 22.128 h 49.855 v -69.07 c 12.16,10.942 27.242,18.969 48.157,18.969 27.238,0 36.968,-8.758 36.968,-39.641 V 71.6797 l 18.239,-1.2188 V 48.5703"
         style="fill:#231f20;fill-opacity:1;fill-rule:nonzero;stroke:none"
         transform="matrix(0.13333333,0,0,-0.13333333,0,164.53333)" />
      <path
         id="path10"
         d="m 701.578,48.5703 h -67 v 21.5391 l 18.426,1.1992 v 82.5504 l -18.426,0.961 v 21.77 h 49.055 V 71.3086 l 17.945,-1.1992 V 48.5703"
         style="fill:#231f20;fill-opacity:1;fill-rule:nonzero;stroke:none"
         transform="matrix(0.13333333,0,0,-0.13333333,0,164.53333)" />
      <path
         id="path11"
         d="M 802.676,85.1797 V 146.68 c -9.094,5.269 -15.551,6.699 -30.629,6.699 -21.774,0 -26.801,-5.02 -26.801,-37.809 0,-33.2614 5.027,-37.8005 27.039,-37.8005 14.36,0 21.297,1.6719 30.391,7.4102 z m 30.871,68.6793 V 52.1602 C 833.547,9.57031 823.496,0 774.441,0 729.215,0 720.84,8.85156 720.84,39.9609 l 27.758,1.1993 c 0,-14.6016 4.066,-19.1485 25.363,-19.1485 24.887,0 28.715,7.418 28.715,30.1485 V 71.0703 C 789.516,55.75 780.184,52.3984 761.277,52.3984 c -33.257,0 -45.222,10.5313 -45.222,63.1716 0,52.41 11.965,63.18 45.465,63.18 19.382,0 29.429,-3.352 41.156,-16.512 v 14.594 h 30.871 v -0.242 h 18.183 v -21.531 l -18.183,-1.2"
         style="fill:#231f20;fill-opacity:1;fill-rule:nonzero;stroke:none"
         transform="matrix(0.13333333,0,0,-0.13333333,0,164.53333)" />
      <path
         id="path12"
         d="m 911.719,69.3906 c 14.117,0 23.449,4.5508 35.652,16.5078 V 105.281 H 931.34 c -34.219,0 -39.242,-8.3708 -39.242,-19.8591 0,-8.6133 5.261,-16.0313 19.621,-16.0313 z m 84.707,-20.8203 h -46.899 l -1.437,18.668 C 933.492,52.3984 920.57,46.4219 902.387,46.4219 c -27.996,0 -39.723,15.789 -39.723,37.0898 0,22.4883 9.094,39.2383 64.848,39.2383 h 19.859 v 7.422 c 0,19.859 -3.828,26.316 -26.082,26.316 -20.578,0 -24.406,-4.777 -24.406,-17.937 l -28.477,-1.442 c 0,31.352 9.332,41.641 54.078,41.641 45.465,0 55.758,-10.051 55.758,-48.102 V 71.3086 l 18.184,-0.957 V 48.5703"
         style="fill:#231f20;fill-opacity:1;fill-rule:nonzero;stroke:none"
         transform="matrix(0.13333333,0,0,-0.13333333,0,164.53333)" />
      <path
         id="path13"
         d="m 1164.36,48.5703 h -67 v 21.5391 l 18.18,1.1992 v 60.5434 c 0,16.269 -4.78,21.046 -21.06,21.046 -10.28,0 -17.7,-2.386 -31.82,-9.328 V 71.3086 l 18.19,-1.1992 V 48.5703 h -67.25 v 21.5391 l 18.19,1.1992 v 82.5504 l -18.19,1.2 v 21.531 h 49.06 v -16.508 c 11.96,10.77 26.8,18.668 47.38,18.668 26.8,0 36.37,-8.621 36.37,-39.012 V 71.3086 l 17.95,-1.1992 V 48.5703"
         style="fill:#231f20;fill-opacity:1;fill-rule:nonzero;stroke:none"
         transform="matrix(0.13333333,0,0,-0.13333333,0,164.53333)" />
      <path
         id="path14"
         d="m 273.668,212.77 c 0,13.878 2.391,16.281 18.902,16.281 15.793,0 18.188,-2.403 18.188,-16.281 0,-14.11 -2.395,-16.27 -18.188,-16.27 -16.511,0 -18.902,2.16 -18.902,16.27"
         style="fill:#231f20;fill-opacity:1;fill-rule:nonzero;stroke:none"
         transform="matrix(0.13333333,0,0,-0.13333333,0,164.53333)" />
      <path
         id="path15"
         d="m 648.695,212.77 c 0,13.878 2.395,16.281 18.907,16.281 15.793,0 18.183,-2.403 18.183,-16.281 0,-14.11 -2.39,-16.27 -18.183,-16.27 -16.512,0 -18.907,2.16 -18.907,16.27"
         style="fill:#231f20;fill-opacity:1;fill-rule:nonzero;stroke:none"
         transform="matrix(0.13333333,0,0,-0.13333333,0,164.53333)" />
      <path
         id="path16"
         d="M 1225.96,391.859 H 559.57 v 818.071 h 666.39 V 391.859"
         style="fill:#fccb07;fill-opacity:1;fill-rule:nonzero;stroke:none"
         transform="matrix(0.13333333,0,0,-0.13333333,0,164.53333)" />
      <path
         id="path17"
         d="m 964.855,487.805 c 16.508,0 18.489,-1.582 18.489,-14.528 0,-12.41 -1.981,-13.863 -18.489,-13.863 -16.64,0 -18.621,1.453 -18.621,13.863 0,12.946 1.981,14.528 18.621,14.528 z m 0,39.484 c 14.524,0 16.375,-1.449 16.375,-12.809 0,-11.753 -1.851,-13.207 -16.375,-13.207 -14.656,0 -16.507,1.454 -16.507,13.207 0,11.36 1.851,12.809 16.507,12.809 z m -36.582,-55.726 c 0,-23.114 3.832,-25.622 36.582,-25.622 32.618,0 36.445,2.508 36.445,25.622 0,16.507 -2.112,21.523 -15.187,23.109 11.098,1.582 12.946,6.734 12.946,20.473 0,22.05 -3.567,25.617 -34.204,25.617 -30.769,0 -34.468,-3.567 -34.468,-25.617 0,-13.739 1.851,-18.891 13.074,-20.473 -13.074,-1.586 -15.188,-6.734 -15.188,-23.109"
         style="fill:#231f20;fill-opacity:1;fill-rule:nonzero;stroke:none"
         transform="matrix(0.13333333,0,0,-0.13333333,0,164.53333)" />
      <path
         id="path18"
         d="m 810.184,487.805 c 16.507,0 18.488,-1.582 18.488,-14.528 0,-12.41 -1.981,-13.863 -18.488,-13.863 -16.641,0 -18.621,1.453 -18.621,13.863 0,12.946 1.98,14.528 18.621,14.528 z m 0,39.484 c 14.523,0 16.375,-1.449 16.375,-12.809 0,-11.753 -1.852,-13.207 -16.375,-13.207 -14.661,0 -16.508,1.454 -16.508,13.207 0,11.36 1.847,12.809 16.508,12.809 z m -36.582,-55.726 c 0,-23.114 3.832,-25.622 36.582,-25.622 32.617,0 36.445,2.508 36.445,25.622 0,16.507 -2.113,21.523 -15.188,23.109 11.094,1.582 12.942,6.734 12.942,20.473 0,22.05 -3.563,25.617 -34.199,25.617 -30.774,0 -34.465,-3.567 -34.465,-25.617 0,-13.739 1.847,-18.891 13.07,-20.473 -13.07,-1.586 -15.187,-6.734 -15.187,-23.109"
         style="fill:#231f20;fill-opacity:1;fill-rule:nonzero;stroke:none"
         transform="matrix(0.13333333,0,0,-0.13333333,0,164.53333)" />
      <path
         id="path19"
         d="m 1118.6,459.414 c -15.98,0 -17.43,1.453 -17.43,13.734 l -17.83,-1.058 c 0,-22.981 3.31,-26.012 35.26,-26.149 31.3,-0.128 35.13,2.907 35.13,27.864 0,25.886 -4.09,29.054 -33.01,29.054 -8.46,0 -13.87,-0.523 -18.1,-1.586 l 0.4,24.696 h 32.62 l 1.05,-10.563 h 14.53 v 24.164 h -64.71 l -0.79,-51.632 c 9.9,0.925 18.09,1.585 30.77,1.585 17.96,0 19.41,-3.437 19.41,-16.113 0,-12.414 -2.11,-13.996 -17.3,-13.996"
         style="fill:#231f20;fill-opacity:1;fill-rule:nonzero;stroke:none"
         transform="matrix(0.13333333,0,0,-0.13333333,0,164.53333)" />
      <path
         id="path20"
         d="m 1069.38,1127.46 c 1.23,2.17 3.11,5.08 4.91,7.8 -1.25,3.16 -3.38,8.12 -4.56,8.36 -1.3,0.28 -7.19,-7.94 -10.78,-15.71 4.92,0.3 8.57,-0.14 10.43,-0.45"
         style="fill:#231f20;fill-opacity:1;fill-rule:nonzero;stroke:none"
         transform="matrix(0.13333333,0,0,-0.13333333,0,164.53333)" />
      <path
         id="path21"
         d="m 660.27,524.121 v -63.519 l -20.864,-0.797 v -12.672 h 57.707 v 12.672 l -19.011,0.797 v 78.968 h -7.664 l -0.129,-0.132 -32.75,-5.02 1.976,-12.938 20.735,2.641"
         style="fill:#231f20;fill-opacity:1;fill-rule:nonzero;stroke:none"
         transform="matrix(0.13333333,0,0,-0.13333333,0,164.53333)" />
      <path
         id="path22"
         d="M 1219.53,393.543 H 571.758 v 201.715 h 647.772 z m -238.135,312.801 -13.266,-5.867 -39.457,-11.036 -31.973,-4.351 c 0,0 -23.074,-1.469 -29.656,2.797 -6.563,4.258 -27.711,2.23 -29.629,2.16 -1.93,-0.067 -17.199,-4.461 -28.633,-8.09 -3.468,-1.105 -7.328,-2.387 -11.047,-3.652 -5.714,3.945 -18.636,11.5 -35.332,12.707 0,0 -1.812,2.941 -2.422,8.051 -0.617,5.132 -3.328,45.292 -1.945,54.343 1.395,9.047 24.016,23.555 43.555,40.11 19.551,16.539 23.945,37.687 23.945,37.687 0,0 5.645,9.621 11.539,12.836 5.883,3.211 23.547,0.406 36.149,-4.703 12.605,-5.129 81,-0.981 81,-0.981 -0.051,-10.707 10.195,-57.894 13.636,-70.199 2.231,-7.988 6.243,-25.32 9.024,-36.832 2.664,-11.164 4.277,-23.215 4.512,-24.98 z M 571.758,1205.5 H 1219.53 V 670.004 l -8.49,12.137 -24.51,20.332 -36.74,21.187 -17.96,3.207 -16.95,3.258 c 0,0 -17.14,11.598 -22.91,11.395 -5.78,-0.204 -17.92,-8.192 -17.92,-8.192 l -13.9,-0.492 -4.67,-2.965 c -1.42,5.707 -2.79,12.067 -2.81,12.168 -1.37,7.344 -3.08,16.777 -3.13,18.324 -0.1,2.559 -1.78,13.637 -1.97,18.774 -0.17,5.129 -4.09,19.125 -4.09,19.125 l -0.8,58.238 c -5.74,-5.246 -12.49,-10.559 -18.35,-12.781 0,0 -12.72,-48.887 -9.16,-81.715 1.31,-3.649 2.5,-6.699 3.33,-8.32 2,-3.926 6.78,-16.18 10.12,-24.907 v 0 c 0.93,-2.429 2.49,-7.453 3.45,-10.582 l -1.71,-0.781 c -1.01,2.016 -2.18,4.324 -3.3,6.367 -2.75,5.055 -16.16,2.641 -18.79,4.473 -1.96,1.367 -2.52,6.121 -2.69,8.5 0,0.453 -0.04,0.914 -0.06,1.371 v 0.008 c -0.13,2.062 -0.32,3.937 -0.32,3.937 l 0.4,13.446 c 0,0.183 0.75,80.039 9.19,109.949 0.02,0.066 0.03,0.129 0.05,0.195 0.02,0.082 0.05,0.172 0.07,0.25 h 0.01 c 0.13,0.481 0.28,0.961 0.42,1.352 0,0 22.03,-0.703 46.55,28.761 7.37,10.149 16.43,26.704 18.86,34.227 0.66,1.996 1.27,4.105 1.82,6.242 -2.22,6.266 -5.38,12.625 -9.55,15.539 0,0 6.86,-0.148 11.73,-1.531 0.08,3.473 -0.23,6.813 -1.21,9.84 -2.89,8.894 6.09,21.633 10.68,24.797 4.6,3.16 4.32,11.289 4.23,13.863 -0.06,1.66 -1.43,5.07 -2.1,8.98 l -0.01,-0.01 c 0,0 -5.06,15.73 -2.65,25.68 0,0 -0.18,-13.77 12.44,-15.63 0.98,-0.05 1.98,-0.12 3,-0.23 h 0.04 c 5.17,-0.52 10.62,-1.61 13.83,-2.07 7.2,-1.02 10.48,9.79 10.48,9.79 0,0 4.16,3.58 9.14,8.47 4.95,4.89 7.03,6.67 5.96,12.65 -1.06,5.96 -32.31,29.26 -32.31,29.26 0,0 0.01,0.06 0.02,0.16 -6.43,4.84 -12.48,9.18 -15.06,10.48 0,0 4.55,3.64 8.19,1.51 3.15,-1.84 -0.52,-3.7 7.16,-9.69 0.28,2.86 0.45,7.61 -0.8,11.22 -1.48,4.27 -14.54,16.58 -20.35,21.91 l -4.75,-9.82 3.13,29.57 c 0.32,7.39 0.21,14.63 -1.14,17.93 -1.97,4.82 -6.69,-0.21 -10.85,-6.13 h 0.01 c -4.79,-7.65 -9.77,-20.19 -9.77,-20.19 0,0 -7.67,0.6 -14.9,0.66 -0.02,-0.03 -0.04,-0.09 -0.04,-0.13 -2.58,0.11 -6.48,0.1 -10.56,-0.53 -0.44,-0.09 -0.81,-0.15 -1.13,-0.17 -4.54,-0.8 -9.18,-2.41 -12.45,-5.48 -8.71,-8.17 -29.99,-35.92 -29.99,-35.92 0,0 -21.474,-22.61 -25.674,-25.32 -4.175,-2.73 -10.339,-10.23 -22.644,-13.67 0,0 -2.231,-4.62 -2.891,-8.46 -0.304,-4.6 0.203,-9.5 2.762,-13.07 0,0 -3.738,2.44 -8.426,5.25 -14.5,-10.2 -52.769,-31.457 -56.48,-34.012 -4.598,-3.164 -22.574,-15.797 -36.649,-17.578 0,0 -93.992,-19.961 -98.82,-28.312 -21.344,-9.305 -27.625,-22.36 -31.445,-30.727 -4.371,-9.586 -15.668,-41.262 -27.739,-63.109 -12.082,-21.848 -52.82,-44.719 -58.64,-49.637 -5.824,-4.918 -14.008,-3.492 -3.356,-14.246 10.672,-10.766 37.524,-6.816 57.008,-0.555 0.832,0.281 1.68,0.602 2.539,0.957 0.922,0.621 2.121,1.227 3.703,1.77 2.582,1.39 5.207,3.074 7.805,4.976 10.945,10.075 18.152,29.832 18.156,29.836 -0.679,1.215 -1.344,2.578 -2.004,4.082 -2.425,6.063 -5.113,18.039 3.993,30.235 -0.938,-13.399 1.746,-26.645 12.988,-35.34 5.051,-2.707 6.211,-8.215 6.211,-8.215 3.972,-15.449 -7.387,-33.094 -18.192,-42.469 -7.765,-6.734 -8.199,-7.945 -7.414,-15.511 0.09,-0.254 21.824,-65.606 15.43,-89.317 l -12.852,-3.855 c 0,0 5.883,41.211 -1.402,73.578 -0.219,-6.918 -1.094,-14.969 -2.019,-22.844 0,0 -4.282,-34.246 -8.571,-41.105 -1.582,-2.528 -1.394,-7.301 -0.551,-12.289 l -16.39,-5.09 c 0,0 -22.86,-7.883 -26.028,-8.817 -3.183,-0.933 -16.687,-0.734 -16.687,-0.734 0,0 -21.188,-0.434 -25.027,-0.899 -3.844,-0.453 -20.25,-8.746 -20.25,-8.746 l -14.118,-0.504 -17.558,-5.957 z m -26.188,28.53 V 367.141 h 700.14 V 1234.03 H 545.57"
         style="fill:#231f20;fill-opacity:1;fill-rule:nonzero;stroke:none"
         transform="matrix(0.13333333,0,0,-0.13333333,0,164.53333)" />
    </g>
  </g>
</svg>
